HIERARCHY
ROOT Hips
{
  OFFSET 53.8601 94.0489 17.7888
  CHANNELS 6 Xposition Yposition Zposition Zrotation Xrotation Yrotation
  JOINT spine
  {
    OFFSET 0 7.80058 0.448573
    CHANNELS 3 Zrotation Xrotation Yrotation
    JOINT spine1
    {
      OFFSET 0 10.1364 0
      CHANNELS 3 Zrotation Xrotation Yrotation
      JOINT spine2
      {
        OFFSET 0 9.71251 0
        CHANNELS 3 Zrotation Xrotation Yrotation
        JOINT Neck
        {
          OFFSET 0 24.9361 1.18887
          CHANNELS 3 Zrotation Xrotation Yrotation
          JOINT Head
          {
            OFFSET 0 7.53384 0
            CHANNELS 3 Zrotation Xrotation Yrotation
            End Site
            {
              OFFSET 0 18.2361 -6.01402
            }
          }
        }
        JOINT RightShoulder
        {
          OFFSET -4.08965 10.4888 -0.569457
          CHANNELS 3 Zrotation Xrotation Yrotation
          JOINT RightArm
          {
            OFFSET 0 13.757 0
            CHANNELS 3 Zrotation Xrotation Yrotation
            JOINT RightArmRoll
            {
              OFFSET 0 6.94478 0
              CHANNELS 3 Zrotation Xrotation Yrotation
              JOINT RightForeArm
              {
                OFFSET 0 20.2277 0
                CHANNELS 3 Zrotation Xrotation Yrotation
                JOINT RightForeArmRoll
                {
                  OFFSET 0 7.79312 0
                  CHANNELS 3 Zrotation Xrotation Yrotation
                  JOINT RightHand
                  {
                    OFFSET 0 15.6391 0
                    CHANNELS 3 Zrotation Xrotation Yrotation
                    End Site
                    {
                      OFFSET 0 0 0
                    }
                  }
                }
              }
            }
          }
        }
        JOINT LeftShoulder
        {
          OFFSET 4.08965 10.4888 -0.569457
          CHANNELS 3 Zrotation Xrotation Yrotation
          JOINT LeftArm
          {
            OFFSET 0 13.757 0
            CHANNELS 3 Zrotation Xrotation Yrotation
            JOINT LeftArmRoll
            {
              OFFSET 0 6.94478 0
              CHANNELS 3 Zrotation Xrotation Yrotation
              JOINT LeftForeArm
              {
                OFFSET 0 20.2277 0
                CHANNELS 3 Zrotation Xrotation Yrotation
                JOINT LeftForeArmRoll
                {
                  OFFSET 0 7.79312 0
                  CHANNELS 3 Zrotation Xrotation Yrotation
                  JOINT LeftHand
                  {
                    OFFSET 0 15.6391 0
                    CHANNELS 3 Zrotation Xrotation Yrotation
                    End Site
                    {
                      OFFSET 0 0 0
                    }
                  }
                }
              }
            }
          }
        }
      }
    }
  }
  JOINT RightUpLeg
  {
    OFFSET -6.91415 -1.26788 -1.06358
    CHANNELS 3 Zrotation Xrotation Yrotation
    JOINT RightUpLegRoll
    {
      OFFSET 0 18.3378 0
      CHANNELS 3 Zrotation Xrotation Yrotation
      JOINT RightLeg
      {
        OFFSET 0 -22.7085 0
        CHANNELS 3 Zrotation Xrotation Yrotation
        JOINT RightLegRoll
        {
          OFFSET 0 22.7828 0
          CHANNELS 3 Zrotation Xrotation Yrotation
          JOINT RightFoot
          {
            OFFSET 0 18.9629 0
            CHANNELS 3 Zrotation Xrotation Yrotation
            JOINT RightToeBase
            {
              OFFSET 0 15.852 0
              CHANNELS 3 Zrotation Xrotation Yrotation
              End Site
              {
                OFFSET 0.00671906 7.67701 -0.884893
              }
            }
          }
        }
      }
    }
  }
  JOINT LeftUpLeg
  {
    OFFSET 6.91415 -1.26788 -1.06358
    CHANNELS 3 Zrotation Xrotation Yrotation
    JOINT LeftUpLegRoll
    {
      OFFSET 0 18.3379 0
      CHANNELS 3 Zrotation Xrotation Yrotation
      JOINT LeftLeg
      {
        OFFSET 0 22.7084 0
        CHANNELS 3 Zrotation Xrotation Yrotation
        JOINT LeftLegRoll
        {
          OFFSET 0 22.9934 0
          CHANNELS 3 Zrotation Xrotation Yrotation
          JOINT LeftFoot
          {
            OFFSET 0 18.7522 0
            CHANNELS 3 Zrotation Xrotation Yrotation
            JOINT LeftToeBase
            {
              OFFSET 0 15.852 0
              CHANNELS 3 Zrotation Xrotation Yrotation
              End Site
              {
                OFFSET -0.030112 7.67701 -0.884893
              }
            }
          }
        }
      }
    }
  }
}
MOTION
Frames: 4
Frame Time: 0.00208333
53.8204 94.081 17.102 0.322683 -7.07214 -2.33817 -0.366659 -1.18896 0.322904 -0.74106 1.62339 0.692972 -0.749958 3.26834 0.705889 0.721609 15.6914 -1.86923 9.5579 -14.7754 0.542885 74.8856 -3.80829 -3.53554 115.662 31.7506 -79.5811 3.18055e-015 1.59028e-015 -1.59028e-015 -143.213 71.2329 122.301 -8.54429e-006 1.45719e-006 -3 8.02913 -4.9515 0.69775 -66.3357 2.13547 -0.205942 -108.706 19.2889 28.0121 -2.38542e-014 2.54444e-014 -6.36111e-015 172.185 69.0641 -156.91 -2.12828e-005 -2.83215e-006 3 -8.02922 -4.95152 -0.697696 174.562 -1.03746 0.669144 180 7.01576e-015 179.06 -178.952 13.1004 178.852 9.15418e-007 -1.11487e-005 0.0937835 -16.2564 70.34 21.3732 8.13656 25.2338 -3.48622 -178.848 -3.43391 5.99587 4.54188e-006 -4.6773e-006 -1.38291 -4.51505 -10.8664 -0.181831 -4.19982e-007 -4.4788e-006 -0.208775 23.0498 71.1401 -22.717 -8.13648 25.2327 3.48773 
53.8188 94.081 17.1018 0.31729 -7.08336 -2.32351 -0.364908 -1.17935 0.321912 -0.736896 1.64287 0.690397 -0.745763 3.28783 0.703239 0.712028 15.5473 -1.87731 9.57497 -14.6978 0.528513 74.878 -3.81001 -3.5358 115.47 31.562 -79.4564 9.54166e-015 4.77083e-015 7.95139e-015 -143.325 71.0067 122.181 -8.54429e-006 1.45719e-006 -3 8.02913 -4.9515 0.69775 -66.3291 2.10891 -0.192871 -108.646 19.2061 28.3533 4.77083e-015 0 3.18055e-015 171.996 69.0699 -156.585 -2.12828e-005 -2.83215e-006 3 -8.02922 -4.95152 -0.697696 174.571 -1.05575 0.667989 180 7.01576e-015 179.059 -178.955 13.0951 178.853 9.15418e-007 -1.11487e-005 0.0937786 -16.2638 70.3411 21.3761 8.13656 25.2338 -3.48622 -178.841 -3.43549 5.9951 4.54188e-006 -4.6773e-006 -1.38331 -4.50966 -10.8804 -0.181517 -4.19982e-007 -4.4788e-006 -0.209064 23.0453 71.1421 -22.7187 -8.13648 25.2327 3.48773 
53.8175 94.081 17.1021 0.311256 -7.09448 -2.30863 -0.362921 -1.16934 0.320861 -0.732121 1.66315 0.687582 -0.740955 3.30811 0.700339 0.698176 15.3989 -1.88461 9.59626 -14.6236 0.514883 74.8591 -3.81285 -3.53579 115.263 31.3597 -79.327 1.59028e-014 1.11319e-014 -0 -143.459 70.7502 122.052 -8.54429e-006 1.45719e-006 -3 8.02913 -4.9515 0.69775 -66.3203 2.07681 -0.177205 -108.591 19.1312 28.6894 -1.11319e-014 6.36111e-015 -3.18055e-015 171.805 69.0827 -156.266 -2.12828e-005 -2.83215e-006 3 -8.02922 -4.95152 -0.697696 174.581 -1.07467 0.666384 180 7.01576e-015 179.058 -178.958 13.0886 178.854 9.15418e-007 -1.11487e-005 0.0937674 -16.2718 70.3418 21.3789 8.13656 25.2338 -3.48622 -178.833 -3.43734 5.99343 4.54188e-006 -4.6773e-006 -1.38368 -4.50484 -10.8939 -0.181255 -4.19982e-007 -4.4788e-006 -0.20936 23.0406 71.1434 -22.7197 -8.13648 25.2327 3.48773 
53.8149 94.0804 17.1037 0.304702 -7.10526 -2.29361 -0.360742 -1.15912 0.319746 -0.726852 1.68384 0.684538 -0.735651 3.3288 0.697202 0.681082 15.2491 -1.89123 9.62082 -14.5542 0.502148 74.831 -3.81665 -3.53558 115.046 31.1471 -79.1949 6.36111e-015 1.59028e-015 -1.59028e-015 -143.613 70.4688 121.917 -8.54429e-006 1.45719e-006 -3 8.02913 -4.9515 0.69775 -66.3095 2.04026 -0.159448 -108.539 19.0632 29.0174 1.11319e-014 -3.18055e-015 -0 171.615 69.1023 -155.954 -2.12828e-005 -2.83215e-006 3 -8.02922 -4.95152 -0.697696 174.591 -1.09384 0.664357 180 7.01576e-015 179.057 -178.96 13.0811 178.855 9.15418e-007 -1.11487e-005 0.0937512 -16.2801 70.342 21.3817 8.13656 25.2338 -3.48622 -178.824 -3.43918 5.99097 4.54188e-006 -4.6773e-006 -1.38403 -4.50055 -10.9068 -0.181036 -4.19982e-007 -4.4788e-006 -0.209661 23.0356 71.1442 -22.7201 -8.13648 25.2327 3.48773 
